<svg width="73" height="51" viewBox="0 0 73 51" fill="none" xmlns="http://www.w3.org/2000/svg">
<path d="M57.576 4.8671L56.788 3.76222V3.20977V2.38111L57.576 1.55244H58.3641H59.1521L59.6775 2.38111V3.20977L59.9401 1.82866L60.9909 1H61.7789H62.8296L63.0923 1.82866V2.38111L62.567 3.20977V3.76222H61.7789L63.355 3.48599L64.6684 3.76222L65.1938 4.59088V5.41955L64.6684 6.52443L63.8804 7.07688H61.7789L62.567 7.90554V9.01043L61.5162 10.1153" stroke="#AA8B66"/>
<path d="M59.4149 4.86704L59.9403 4.59082H60.4657H60.7283L61.1092 4.86704L61.2537 5.41949V5.97193L60.991 6.52437L60.7283 6.80059H60.203H59.6776L59.4149 6.52437L59.1522 5.97193V5.41949L59.4149 4.86704Z" stroke="#AA8B66"/>
<path d="M61.5163 10.1153H60.2029L59.1522 9.56281L58.6268 8.73414V7.35304L57.5761 7.90548H56.5254L56 7.35304V6.24815L56.5254 5.14326L57.5761 4.59082" stroke="#AA8B66"/>
<path d="M65.3832 29.8473L64.6916 28.8776V28.3928V27.6655L65.3832 26.9382H66.0749H66.7665L67.2276 27.6655V28.3928L67.4581 27.1806L68.3803 26.4534H69.0719H69.9941L70.2246 27.1806V27.6655L69.7635 28.3928V28.8776H69.0719L70.4551 28.6352L71.6078 28.8776L72.0689 29.6049V30.3322L71.6078 31.3019L70.9162 31.7867H69.0719L69.7635 32.514V33.4837L68.8414 34.4534" stroke="#AA8B66"/>
<path d="M68.8414 34.4535H67.6887L66.7665 33.9686L66.3054 33.2413V32.0292L65.3832 32.5141H64.4611L64 32.0292V31.0595L64.4611 30.0898L65.3832 29.605" stroke="#AA8B66"/>
<path d="M10.3834 11.8473L9.69174 10.8776V10.3928V9.66549L10.3834 8.93822H11.075H11.7666L12.2277 9.66549V10.3928L12.4582 9.18064L13.3804 8.45337H14.072H14.9942L15.2247 9.18064V9.66549L14.7636 10.3928V10.8776H14.072L15.4553 10.6352L16.608 10.8776L17.069 11.6049V12.3322L16.608 13.3019L15.9163 13.7867H14.072L14.7636 14.514V15.4837L13.8415 16.4534" stroke="#AA8B66"/>
<path d="M13.8414 16.4535H12.6887L11.7665 15.9686L11.3054 15.2413V14.0292L10.3832 14.5141H9.46108L9 14.0292V13.0595L9.46108 12.0898L10.3832 11.605" stroke="#AA8B66"/>
<path d="M3.31594 38.1356L2.158 36.5121V35.7004V34.4828L3.31594 33.2651H4.47388H5.63183L6.40379 34.4828V35.7004L6.78977 33.671L8.3337 32.4534H9.49164H11.0356L11.4215 33.671V34.4828L10.6496 35.7004V36.5121H9.49164L11.8075 36.1063L13.7374 36.5121L14.5094 37.7298V38.9474L13.7374 40.5709L12.5795 41.3827H9.49164L10.6496 42.6003V44.2238L9.10566 45.8473" stroke="#AA8B66"/>
<path d="M6.01774 38.1356L6.7897 37.7297H7.56167H7.94765L8.50727 38.1356L8.71961 38.9474V39.7591L8.33363 40.5709L7.94765 40.9768H7.17568H6.40372L6.01774 40.5709L5.63176 39.7591V38.9474L6.01774 38.1356Z" stroke="#AA8B66"/>
<path d="M9.10561 45.8473H7.1757L5.63177 45.0355L4.85981 43.8179V41.7885L3.31589 42.6003H1.77196L1 41.7885V40.165L1.77196 38.5415L3.31589 37.7297" stroke="#AA8B66"/>
<circle cx="38" cy="30.4534" r="19" stroke="#AA8B66" stroke-width="2"/>
<path d="M39.1667 14.309L40.8333 13.0719L42.0833 12.4534L43.75 13.0719L46.4583 14.309L49.375 16.1647L52.9167 20.2884L54.7917 23.5874L55.8333 27.2987L56.25 31.4224L55.8333 34.9276L53.75 35.5462L50.8333 36.3709L46.875 36.7833H44.5833L41.6667 36.3709L39.7917 34.9276L38.5417 33.4843V31.4224L39.1667 29.3606L40.8333 25.8554V24.4121L40 23.175L37.5 22.5565L35.4167 21.1132L35 19.0513L35.625 17.1956L37.2917 15.5462L39.1667 14.309Z" fill="#AA8B66" stroke="#AA8B66"/>
<path d="M24.625 21.6905L22.125 20.4534L20.875 22.5152L20.0417 24.7833L19.4167 27.4637L19 30.1441H21.7083L24.625 29.5255L27.125 28.4946L28.5833 27.4637L29 25.8142L28.5833 24.3709L27.125 22.9276L24.625 21.6905Z" fill="#AA8B66" stroke="#AA8B66"/>
<path d="M23.125 36.0719L20 37.5152L21.0417 39.1647L21.6667 40.1956L22.9167 42.0513L23.9583 43.2884L26.0417 44.7317L27.9167 46.175L30 47.4121L32.0833 48.0307L36.0417 48.6492H39.1667L41.875 48.0307L41.4583 47.4121L40.625 46.3812L39.1667 45.1441L37.0833 43.907L35.2083 43.2884L33.5417 42.876L32.0833 42.6699L30.625 42.2575L29.7917 41.4328V40.1956L30 38.9585L30.2083 38.1338V37.1029L29.5833 36.2781L28.5417 35.6596L27.0833 35.4534H25.2083L23.125 36.0719Z" fill="#AA8B66" stroke="#AA8B66"/>
</svg>
