<svg width="71" height="46" viewBox="0 0 71 46" fill="none" xmlns="http://www.w3.org/2000/svg">
<path d="M1.82397 25.3358L6.82903 22.4314C6.39063 22.0478 5.9705 21.5546 5.65997 21.0066C4.14384 18.3945 5.0389 15.0334 7.6693 13.5173C9.24024 12.6039 11.0852 12.6039 12.6378 13.2615L12.6196 13.2433L14.227 13.9557L14.428 12.2021L14.4462 12.2203C14.6106 10.5581 15.5788 8.9506 17.1497 8.03727C18.4134 7.31526 19.9109 7.1213 21.3168 7.49757C22.7227 7.87385 23.9232 8.78992 24.6573 10.0466C24.9678 10.5946 25.1688 11.1974 25.2784 11.7819L30.3017 8.8958C32.0553 7.89113 34.2838 8.47567 35.2885 10.2293L38.0285 14.9786C38.1494 15.1856 38.2278 15.4145 38.2592 15.6521C38.2906 15.8897 38.2744 16.1312 38.2115 16.3624C38.1485 16.5937 38.0402 16.8101 37.8927 16.9991C37.7453 17.188 37.5617 17.3457 37.3526 17.4629L34.1925 19.2895L26.484 23.7466H38.3573V42.0133C38.3573 42.9822 37.9724 43.9114 37.2873 44.5966C36.6021 45.2817 35.6729 45.6666 34.704 45.6666H5.4773C3.4497 45.6666 1.82397 44.0409 1.82397 42.0133V32.6425L0.490502 30.3226C-0.514164 28.569 0.070368 26.3405 1.82397 25.3358ZM11.9802 17.3533C11.487 16.4399 10.3545 16.1842 9.49597 16.6774C8.61917 17.1889 8.30863 18.2666 8.8201 19.1799C9.33157 20.0933 10.4458 20.349 11.3226 19.8558C12.1812 19.3443 12.4917 18.2666 11.9802 17.3533ZM16.3094 21.1893L3.65063 28.4959L5.4773 31.6561L18.1361 24.3494L16.3094 21.1893ZM21.9173 42.0133H34.704V27.3999H21.9173V42.0133ZM21.2962 22.5227L33.955 15.2161L32.1284 12.0559L19.4696 19.3626L21.2962 22.5227ZM20.803 14.3758C21.6798 13.8643 21.9721 12.7866 21.4789 11.8733C21.004 10.9599 19.8532 10.7042 18.9764 11.1974C18.0996 11.7089 17.8073 12.7866 18.3188 13.6999C18.812 14.6133 19.9262 14.869 20.803 14.3758ZM18.264 42.0133V28.4959L5.4773 35.8757V42.0133H18.264Z" fill="#AA8B66"/>
<path d="M46.2383 8.76807C48.5731 8.76807 50.4657 10.7002 50.4657 13.0836C50.4657 15.467 48.5731 17.3991 46.2383 17.3991C43.9035 17.3991 42.0109 15.467 42.0109 13.0836C42.0109 10.7002 43.9035 8.76807 46.2383 8.76807ZM46.2383 9.48732C44.2926 9.48732 42.7154 11.0974 42.7154 13.0836C42.7154 15.0698 44.2926 16.6798 46.2383 16.6798C48.184 16.6798 49.7611 15.0698 49.7611 13.0836C49.7611 11.0974 48.184 9.48732 46.2383 9.48732ZM46.3392 10.6176V11.1008C47.0396 11.1581 47.5467 11.587 47.5691 12.2361H46.9864C46.9499 11.8758 46.6978 11.667 46.3392 11.6213V12.8138L46.4738 12.848C47.2106 13.0226 47.614 13.3315 47.614 13.9406C47.614 14.6413 47.0537 15.0387 46.3392 15.0903V15.5706H46.0227V15.0903C45.3111 15.0358 44.7481 14.6269 44.7286 13.9406H45.3084C45.3588 14.2752 45.5718 14.5212 46.0227 14.5699V13.3227L45.9078 13.2939C45.1962 13.1255 44.8126 12.7995 44.8126 12.2188C44.8126 11.5782 45.3167 11.1551 46.0227 11.1006V10.6174L46.3392 10.6176ZM46.3392 13.3972V14.5726C46.8183 14.5354 47.02 14.3038 47.02 13.9977C47.02 13.7032 46.8632 13.5288 46.3392 13.3972ZM46.0227 11.6213C45.6193 11.6728 45.4064 11.9101 45.4064 12.1705C45.4064 12.4307 45.5746 12.6222 46.0229 12.7367L46.0227 11.6213Z" fill="#AA8B66"/>
<path d="M52.9708 20.824C56.6027 20.824 59.5468 23.8294 59.5468 27.537C59.5468 31.2445 56.6027 34.25 52.9708 34.25C49.339 34.25 46.3948 31.2445 46.3948 27.537C46.3948 23.8294 49.339 20.824 52.9708 20.824ZM52.9708 21.9428C49.9442 21.9428 47.4908 24.4473 47.4908 27.537C47.4908 30.6266 49.9442 33.1311 52.9708 33.1311C55.9974 33.1311 58.4508 30.6266 58.4508 27.537C58.4508 24.4473 55.9974 21.9428 52.9708 21.9428ZM53.1278 23.7011V24.4526C54.2173 24.5419 55.0061 25.209 55.0409 26.2187H54.1345C54.0778 25.6582 53.6857 25.3334 53.1278 25.2624V27.1174L53.3372 27.1706C54.4833 27.4422 55.1108 27.9227 55.1108 28.8701C55.1108 29.9601 54.2392 30.5782 53.1278 30.6585V31.4056H52.6355V30.6585C51.5285 30.5738 50.6528 29.9377 50.6224 28.8701H51.5244C51.6028 29.3906 51.934 29.7732 52.6355 29.849V27.909L52.4568 27.8642C51.3499 27.6021 50.7531 27.095 50.7531 26.1919C50.7531 25.1953 51.5373 24.5371 52.6355 24.4524V23.7008L53.1278 23.7011ZM53.1278 28.0248V29.8532C53.8731 29.7953 54.1868 29.4351 54.1868 28.959C54.1868 28.5008 53.943 28.2295 53.1278 28.0248ZM52.6355 25.2624C52.008 25.3424 51.6767 25.7116 51.6767 26.1166C51.6767 26.5214 51.9384 26.8192 52.6357 26.9974L52.6355 25.2624Z" fill="#AA8B66"/>
<path d="M62.052 0C66.4621 0 70.0371 3.64949 70.0371 8.1515C70.0371 12.6535 66.4621 16.303 62.052 16.303C57.6418 16.303 54.0668 12.6535 54.0668 8.1515C54.0668 3.64949 57.6418 0 62.052 0ZM62.052 1.35858C58.3768 1.35858 55.3977 4.39977 55.3977 8.1515C55.3977 11.9032 58.3768 14.9444 62.052 14.9444C65.7271 14.9444 68.7063 11.9032 68.7063 8.1515C68.7063 4.39977 65.7271 1.35858 62.052 1.35858ZM62.2426 3.4936V4.40622C63.5655 4.51457 64.5234 5.32463 64.5656 6.55075H63.465C63.3961 5.8701 62.92 5.47577 62.2426 5.3895V7.64203L62.4968 7.70656C63.8886 8.03636 64.6505 8.61987 64.6505 9.77025C64.6505 11.0938 63.5921 11.8445 62.2426 11.9419V12.8491H61.6447V11.9419C60.3006 11.839 59.2372 11.0667 59.2003 9.77025H60.2956C60.3907 10.4023 60.793 10.867 61.6447 10.959V8.60323L61.4278 8.54888C60.0836 8.23064 59.359 7.61486 59.359 6.51814C59.359 5.30798 60.3112 4.5088 61.6447 4.40589V3.49326L62.2426 3.4936ZM62.2426 8.74384V10.9641C63.1476 10.8938 63.5286 10.4563 63.5286 9.87826C63.5286 9.32192 63.2324 8.99246 62.2426 8.74384ZM61.6447 5.3895C60.8828 5.48664 60.4806 5.93497 60.4806 6.42678C60.4806 6.91825 60.7983 7.27997 61.6451 7.49632L61.6447 5.3895Z" fill="#AA8B66"/>
</svg>
