<svg width="48" height="45" viewBox="0 0 48 45" fill="none" xmlns="http://www.w3.org/2000/svg">
<path d="M1 21.3256L8.59998 9.29077H19.7999V37.907H17.6L16.6 35.2326L14.8 33.6279L13 32.5581H10.8L8.59998 33.093L6.79998 34.9651L4.99999 37.907H1V21.3256Z" stroke="#AA8B66" stroke-width="2"/>
<path d="M6.59987 18.9186L10.3999 13.0349H15.9998V24.5349H10.5999H5.39987V21.0581L6.59987 18.9186Z" fill="#AA8B66" stroke="#AA8B66"/>
<path d="M22.6003 1.80232L23.2003 1H46.2002L46.6002 1.80232L47.0002 2.33721V29.6162L46.6002 30.1511V30.686L45.8002 31.2208H23.2003L22.6003 30.686V29.6162V7.95347V1.80232Z" stroke="#AA8B66" stroke-width="2"/>
<path d="M32.6002 9.82547L32.0002 8.75571V8.22083V7.4185L32.6002 6.61618H33.2002H33.8002L34.2002 7.4185V8.22083L34.4002 6.88362L35.2002 6.0813H35.8002H36.6002L36.8002 6.88362V7.4185L36.4002 8.22083V8.75571H35.8002L37.0002 8.48827L38.0002 8.75571L38.4002 9.55803V10.3604L38.0002 11.4301L37.4002 11.965H35.8002L36.4002 12.7673V13.8371L35.6002 14.9069" stroke="#AA8B66"/>
<path d="M34 9.82555L34.4 9.55811H34.8H35L35.29 9.82555L35.4 10.3604V10.8953L35.2 11.4302L35 11.6976H34.6H34.2L34 11.4302L33.8 10.8953V10.3604L34 9.82555Z" fill="#AA8B66" stroke="#AA8B66"/>
<path d="M35.5995 14.9069H34.5995L33.7995 14.372L33.3995 13.5697V12.2325L32.5995 12.7674H31.7995L31.3995 12.2325V11.1628L31.7995 10.093L32.5995 9.55811" stroke="#AA8B66"/>
<path d="M37.0001 18.9185L36.4001 17.8487V17.3138V16.5115L37.0001 15.7092H37.6001H38.2001L38.6 16.5115V17.3138L38.8 15.9766L39.6 15.1743H40.2H41L41.2 15.9766V16.5115L40.8 17.3138V17.8487H40.2L41.4 17.5813L42.4 17.8487L42.8 18.6511V19.4534L42.4 20.5231L41.8 21.058H40.2L40.8 21.8603V22.9301L40 23.9999" stroke="#AA8B66"/>
<path d="M38.3999 18.9186L38.7999 18.6511H39.1999H39.3999L39.6899 18.9186L39.7999 19.4534V19.9883L39.5999 20.5232L39.3999 20.7907H38.9999H38.5999L38.3999 20.5232L38.1999 19.9883V19.4534L38.3999 18.9186Z" fill="#AA8B66" stroke="#AA8B66"/>
<path d="M39.9999 23.9999H38.9999L38.1999 23.4651L37.7999 22.6627V21.3255L36.9999 21.8604H36.1999L35.7999 21.3255V20.2558L36.1999 19.186L36.9999 18.6511" stroke="#AA8B66"/>
<path d="M29.1601 20.8442L28.6801 19.9884V19.5605V18.9186L29.1601 18.2768H29.6401H30.1201L30.4401 18.9186V19.5605L30.6001 18.4907L31.2401 17.8489H31.7201H32.3601L32.5201 18.4907V18.9186L32.2001 19.5605V19.9884H31.7201L32.6801 19.7745L33.4801 19.9884L33.8001 20.6303V21.2721L33.4801 22.1279L33.0001 22.5558H31.7201L32.2001 23.1977V24.0535L31.5601 24.9093" stroke="#AA8B66"/>
<path d="M30.2799 20.8443L30.5999 20.6304H30.9199H31.0799L31.3119 20.8443L31.3999 21.2722V21.7001L31.2399 22.128L31.0799 22.342H30.7599H30.4399L30.2799 22.128L30.1199 21.7001V21.2722L30.2799 20.8443Z" fill="#AA8B66" stroke="#AA8B66"/>
<path d="M31.56 24.9094H30.76L30.12 24.4815L29.8 23.8397V22.7699L29.16 23.1978H28.52L28.2 22.7699V21.9141L28.52 21.0583L29.16 20.6304" stroke="#AA8B66"/>
<path d="M22.7998 38.1742V34.6975H32.7998L30.7998 38.1742H22.7998Z" fill="#AA8B66" stroke="#AA8B66"/>
<path d="M43.5999 38.1742L41.2 34.6975H46.3999V38.1742H43.5999Z" fill="#AA8B66" stroke="#AA8B66"/>
<circle cx="11.3498" cy="40.0997" r="1.15" fill="#AA8B66"/>
<circle cx="11.35" cy="40.0997" r="3.59999" stroke="#AA8B66" stroke-width="2"/>
<circle cx="36.65" cy="40.0997" r="1.15" fill="#AA8B66"/>
<circle cx="36.6497" cy="40.0997" r="3.59999" stroke="#AA8B66" stroke-width="2"/>
</svg>
